<svg width="200" height="200" viewBox="0 0 200 200" fill="none" xmlns="http://www.w3.org/2000/svg">
  <!-- Brain + Code background -->
  <path d="M100 20C55.8172 20 20 55.8172 20 100C20 144.183 55.8172 180 100 180C144.183 180 180 144.183 180 100C180 55.8172 144.183 20 100 20Z" fill="#2563EB" fill-opacity="0.1"/>
  
  <!-- Code brackets -->
  <path d="M60 70L40 100L60 130" stroke="#2563EB" stroke-width="8" stroke-linecap="round"/>
  <path d="M140 70L160 100L140 130" stroke="#2563EB" stroke-width="8" stroke-linecap="round"/>
  
  <!-- Brain circuits -->
  <path d="M80 90C80 90 90 70 100 70C110 70 120 90 120 90" stroke="#60A5FA" stroke-width="4" stroke-linecap="round"/>
  <path d="M70 100C70 100 90 120 100 120C110 120 130 100 130 100" stroke="#60A5FA" stroke-width="4" stroke-linecap="round"/>
  
  <!-- AI nodes -->
  <circle cx="100" cy="70" r="5" fill="#818CF8"/>
  <circle cx="80" cy="90" r="5" fill="#818CF8"/>
  <circle cx="120" cy="90" r="5" fill="#818CF8"/>
  <circle cx="100" cy="120" r="5" fill="#818CF8"/>
</svg> 